USFL
nRows=234
nColumns=2
inDegrees=yes
endheader
time	tib_ant_r	
2.99395	 86.040290	
3.02722	 86.027552	
3.06048	 86.002216	
3.09375	 86.048164	
3.12702	 86.113936	
3.16028	 86.220386	
3.19355	 86.283064	
3.22681	 86.307541	
3.26008	 86.335845	
3.29335	 86.381681	
3.32661	 86.460345	
3.35988	 86.522543	
3.39315	 86.527113	
3.42641	 86.592475	
3.45968	 86.554459	
3.49294	 86.572861	
3.52621	 86.587556	
3.55948	 86.566394	
3.59274	 86.595133	
3.62601	 86.595883	
3.65927	 86.622094	
3.69254	 86.625369	
3.72581	 86.751090	
3.75907	 86.753772	
3.79234	 86.787483	
3.8256	 86.750614	
3.85887	 86.802068	
3.89214	 86.850454	
3.9254	 86.855518	
3.95867	 86.866801	
3.99194	 86.881609	
4.0252	 86.895731	
4.05847	 86.976545	
4.09173	 86.910558	
4.125	 86.737463	
4.15827	 86.734261	
4.19153	 86.633726	
4.2248	 86.710935	
4.25806	 86.683062	
4.29133	 86.581222	
4.3246	 86.686695	
4.35786	 86.632334	
4.39113	 86.520562	
4.4244	 86.586404	
4.45766	 86.644770	
4.49093	 86.719198	
4.52419	 86.820815	
4.55746	 86.986249	
4.59073	 87.168485	
4.62399	 87.272205	
4.65726	 87.283945	
4.69052	 87.163305	
4.72379	 87.116930	
4.75706	 87.032894	
4.79032	 86.905419	
4.82359	 86.906952	
4.85685	 86.813126	
4.89012	 86.819212	
4.92339	 86.846439	
4.95665	 86.774170	
4.98992	 86.627123	
5.02319	 86.462065	
5.05645	 85.998668	
5.08972	 85.886193	
5.12298	 85.221532	
5.15625	 84.993587	
5.18952	 76.264521	
5.22278	 76.255683	
5.25605	 74.874776	
5.28931	 75.176060	
5.32258	 75.216256	
5.35585	 75.132012	
5.38911	 74.965538	
5.42238	 74.911624	
5.45565	 74.705966	
5.48891	 74.665742	
5.52218	 74.693331	
5.55544	 74.621768	
5.58871	 74.694998	
5.62198	 71.045647	
5.65524	 70.933498	
5.68851	 71.000298	
5.72177	 71.058787	
5.75504	 70.957018	
5.78831	 71.163649	
5.82157	 71.412494	
5.85484	 71.413802	
5.8881	 71.322038	
5.92137	 71.227524	
5.95464	 71.255214	
5.9879	 71.116103	
6.02117	 71.117238	
6.05444	 71.082512	
6.0877	 71.056290	
6.12097	 71.017345	
6.15423	 71.073353	
6.1875	 71.105915	
6.22077	 71.073154	
6.25403	 71.118492	
6.2873	 71.155250	
6.32056	 71.192615	
6.35383	 71.101499	
6.3871	 71.082534	
6.42036	 71.124329	
6.45363	 71.163401	
6.4869	 71.202706	
6.52016	 71.214068	
6.55343	 71.185604	
6.58669	 71.138265	
6.61996	 71.201929	
6.65323	 71.307827	
6.68649	 71.324976	
6.71976	 71.375534	
6.75302	 71.251346	
6.78629	 71.442777	
6.81956	 71.383994	
6.85282	 71.276938	
6.88609	 71.512269	
6.91935	 71.573521	
6.95262	 71.480480	
6.98589	 71.570497	
7.01915	 71.852902	
7.05242	 71.810222	
7.08569	 71.959763	
7.11895	 71.904863	
7.15222	 71.962718	
7.18548	 72.182043	
7.21875	 73.474134	
7.25202	 73.349918	
7.28528	 73.267682	
7.31855	 73.266202	
7.35181	 73.272725	
7.38508	 73.284334	
7.41835	 73.291976	
7.45161	 73.274232	
7.48488	 73.214666	
7.51815	 73.288495	
7.55141	 73.314084	
7.58468	 73.255400	
7.61794	 73.336271	
7.65121	 73.420242	
7.68448	 73.447652	
7.71774	 73.448461	
7.75101	 73.507273	
7.78427	 73.487685	
7.81754	 73.604738	
7.85081	 73.662138	
7.88407	 73.710982	
7.91734	 73.613455	
7.9506	 73.654763	
7.98387	 73.652759	
8.01714	 73.636313	
8.0504	 73.638800	
8.08367	 73.679046	
8.11694	 73.701404	
8.1502	 73.650416	
8.18347	 73.803296	
8.21673	 73.756872	
8.25	 73.846784	
8.28327	 73.832211	
8.31653	 73.773999	
8.3498	 73.862347	
8.38306	 73.900472	
8.41633	 73.846764	
8.4496	 73.945369	
8.48286	 74.028797	
8.51613	 73.987398	
8.5494	 74.046673	
8.58266	 74.118491	
8.61593	 74.212575	
8.64919	 81.482020	
8.68246	 81.462494	
8.71573	 81.661260	
8.74899	 81.663427	
8.78226	 81.637012	
8.81552	 81.719899	
8.84879	 81.806799	
8.88206	 81.769012	
8.91532	 81.794202	
8.94859	 81.750299	
8.98185	 81.743091	
9.01512	 81.730603	
9.04839	 81.803331	
9.08165	 81.795053	
9.11492	 81.849308	
9.14819	 81.950713	
9.18145	 81.848762	
9.21472	 81.767493	
9.24798	 81.706709	
9.28125	 81.778647	
9.31452	 81.819966	
9.34778	 81.771041	
9.38105	 81.763926	
9.41431	 81.784383	
9.44758	 81.867612	
9.48085	 81.944177	
9.51411	 81.984045	
9.54738	 82.074928	
9.58065	 82.125526	
9.61391	 82.108129	
9.64718	 82.183623	
9.68044	 82.199014	
9.71371	 82.241067	
9.74698	 82.339273	
9.78024	 82.353802	
9.81351	 82.384246	
9.84677	 82.420473	
9.88004	 82.567257	
9.91331	 82.626033	
9.94657	 82.749926	
9.97984	 82.773082	
10.0131	 82.901941	
10.0464	 83.036960	
10.0796	 83.304792	
10.1129	 83.730012	
10.1462	 84.103369	
10.1794	 83.851039	
10.2127	 83.424973	
10.246	 83.013080	
10.2792	 83.291835	
10.3125	 83.713123	
10.3458	 83.898841	
10.379	 84.047658	
10.4123	 84.175106	
10.4456	 84.381636	
10.4788	 84.569576	
10.5121	 86.452985	
10.5454	 86.906546	
10.5786	 87.342743	
10.6119	 87.196323	
10.6452	 87.458848	
10.6784	 87.464187	
10.7117	 87.562356	
10.745	 87.482196	
